<?xml version="1.0" encoding="utf-8"?>
<!-- Generator: Adobe Illustrator 22.0.1, SVG Export Plug-In . SVG Version: 6.00 Build 0)  -->
<svg version="1.1" id="Capa_1" xmlns="http://www.w3.org/2000/svg" xmlns:xlink="http://www.w3.org/1999/xlink" x="0px" y="0px"
	 viewBox="0 0 23.5 20.6" style="enable-background:new 0 0 23.5 20.6;" xml:space="preserve">
<style type="text/css">
	.st0{fill:#0082C5;}
</style>
<g>
	<path class="st0" d="M20.5,0H2.9C1.3,0,0,1.3,0,2.9v11c0,1.4,1.1,2.6,2.5,2.8c0,0.4,0,1.4,0,3.4c0,0.1,0.1,0.3,0.2,0.4
		c0.1,0,0.1,0.1,0.2,0.1c0.1,0,0.1,0,0.2-0.1l6.1-3.7h11.4c1.6,0,2.9-1.3,2.9-2.9v-11C23.4,1.3,22.1,0,20.5,0z M22.6,13.9
		c0,1.1-0.9,2.1-2.1,2.1H9c-0.1,0-0.1,0-0.2,0.1l-5.6,3.4c0-2.8,0-3.1,0-3.1C3.2,16.2,3,16,2.8,16c-1.1,0-2.1-0.9-2.1-2.1v-11
		c0-1.1,0.9-2.1,2.1-2.1h17.7c1.1,0,2.1,0.9,2.1,2.1L22.6,13.9z"/>
	<circle class="st0" cx="8.2" cy="8.7" r="0.7"/>
	<circle class="st0" cx="15.2" cy="8.7" r="0.7"/>
	<circle class="st0" cx="11.7" cy="8.7" r="0.7"/>
</g>
</svg>
