<?xml version="1.0" encoding="utf-8"?>
<!--Generator: Adobe Illustrator 22.0.1, SVG Export Plug-In . SVG Version: 6.00 Build 0)-->
<svg xmlns="http://www.w3.org/2000/svg" viewBox="0 0 404.5 404.3">
  <path d="M172.1 163.6l-22.9 79.5c-.9 3.1 0 6.5 2.2 8.8 1.7 1.7 4 2.7 6.4 2.7.8 0 1.6-.1 2.4-.3l80.3-22.1c1.5-.4 2.9-1.2 4-2.3L390.1 84.3c9.3-9.3 14.4-21.6 14.4-34.6s-5.1-25.4-14.4-34.6l-.8-.8c-19.1-19.1-50.2-19.1-69.3 0L174.4 159.7c-1.1 1.1-1.8 2.5-2.3 3.9zM332.7 26.9c5.9-5.9 13.6-9.1 21.9-9.1s16.1 3.2 21.9 9.1l.8.8c5.9 5.9 9.1 13.6 9.1 21.9s-3.2 16.1-9.1 21.9l-143.8 144-62.5 17.2 17.8-61.9L332.7 26.9z"/>
  <path d="M48.5 404.3h255.7c27 0 48.8-21.5 48.8-48.5V232.9c0-5-4-9-9-9s-9 4-9 9v122.9c0 17.1-13.7 30.5-30.8 30.5H48.5c-17.1 0-30.5-13.5-30.5-30.5V100.1C18 83 31.4 69.3 48.5 69.3h122.9c5 0 9-4 9-9s-4-9-9-9H48.5C21.5 51.3 0 73 0 100.1v255.7c0 27 21.5 48.5 48.5 48.5z"/>
</svg>
